<svg width="56" height="56" viewBox="0 0 56 56" fill="none" xmlns="http://www.w3.org/2000/svg">
<path d="M27.5162 1.85709C27.6461 1.35851 28.3539 1.35851 28.4838 1.85709L31.6553 14.0295C31.7505 14.3947 32.2005 14.5269 32.478 14.2711L41.7269 5.7456C42.1057 5.3964 42.7012 5.77911 42.541 6.26878L38.6281 18.2235C38.5107 18.5822 38.8178 18.9366 39.1896 18.8715L51.5795 16.6997C52.0869 16.6108 52.381 17.2547 51.9814 17.58L42.2265 25.5214C41.9338 25.7597 42.0006 26.224 42.3486 26.3702L53.9457 31.2416C54.4207 31.4412 54.32 32.1419 53.808 32.1995L41.3081 33.6063C40.9331 33.6485 40.7382 34.0752 40.9519 34.3863L48.0744 44.7543C48.3661 45.179 47.9025 45.714 47.4407 45.4857L36.1645 39.9113C35.8262 39.744 35.4316 39.9976 35.4432 40.3749L35.8296 52.9477C35.8454 53.4627 35.1662 53.6621 34.9011 53.2203L28.4287 42.4345C28.2345 42.1109 27.7655 42.1109 27.5713 42.4345L21.0989 53.2203C20.8338 53.6621 20.1546 53.4627 20.1704 52.9477L20.5568 40.3749C20.5684 39.9976 20.1738 39.744 19.8355 39.9113L8.55934 45.4857C8.09747 45.714 7.6339 45.179 7.92564 44.7543L15.0481 34.3863C15.2618 34.0752 15.0669 33.6485 14.6919 33.6063L2.19202 32.1995C1.68002 32.1419 1.57928 31.4412 2.0543 31.2416L13.6515 26.3702C13.9994 26.224 14.0662 25.7597 13.7735 25.5214L4.01855 17.58C3.61899 17.2547 3.91306 16.6108 4.42055 16.6997L16.8104 18.8715C17.1822 18.9366 17.4893 18.5822 17.3719 18.2235L13.459 6.26877C13.2988 5.77911 13.8943 5.3964 14.2731 5.7456L23.522 14.2711C23.7995 14.5269 24.2495 14.3947 24.3447 14.0295L27.5162 1.85709Z" fill="url(#paint0_linear_1_165)"/>
<defs>
<linearGradient id="paint0_linear_1_165" x1="9.5" y1="3" x2="40" y2="49.5" gradientUnits="userSpaceOnUse">
<stop stop-color="#B34632"/>
<stop offset="1" stop-color="#D88374"/>
</linearGradient>
</defs>
</svg>
