<svg width="998" height="404" viewBox="0 0 998 404" fill="none" xmlns="http://www.w3.org/2000/svg">
<path d="M234.447 27.026C171.63 34.3543 184.958 39.5578 154.287 44.7613C141.778 47.2055 131.332 51.397 118.201 54.9721C106.461 58.1688 93.3403 62.4336 86.0159 70.2752C78.5845 78.2315 61.4882 90.8166 30.4907 153.787C13.8528 187.587 7.17578 208.081 5.26299 216.252C3.33698 224.481 -2.74403 238.724 1.43741 259.677C11.2072 308.634 22.2845 341.398 42.3183 354.735L42.5549 354.892C56.3933 364.105 87.5726 384.863 131.547 390.627C154.637 393.653 152.317 398.017 197.899 399.432C243.48 400.846 270.358 406.316 310.172 402.89C349.986 399.465 380.24 403.847 400.458 399.738C420.676 395.63 445.447 395.827 467.69 397.052C527.783 400.362 685.98 393.963 685.98 393.963C729.991 392.7 740.281 384.481 787.463 375.4C813.936 370.304 856.891 342.679 881.657 338.787C927.424 331.596 944.372 315.693 961.739 302.116C977.175 290.047 979.743 232.526 992.255 216.079C1002.21 202.998 998.146 168.96 988.333 151.138C981.999 139.635 953.396 113.029 931.042 96.8065C922.227 90.4096 902.255 76.174 872.681 66.082C853.338 59.4811 857.154 49.4111 804.911 35.9229C772.102 27.4523 726.673 17.3674 691.916 11.3065C657.159 5.24555 633.807 2.69465 620.771 2.56221C605.195 2.40398 579.383 0.830622 537.642 0.082199C518.528 -0.260507 503.355 0.282318 447.327 5.34229C391.299 10.4023 297.265 19.6977 234.447 27.026Z" fill="white" fill-opacity="0.95"/>
</svg>
