<svg width="24" height="81" viewBox="0 0 24 81" fill="none" xmlns="http://www.w3.org/2000/svg">
<g clip-path="url(#clip0_11_3112)">
<path d="M10.4879 1.95546C10.4879 1.05548 11.2175 0.325897 12.1174 0.325897V0.325897C13.0174 0.325897 13.747 1.05548 13.747 1.95546V5.54048H10.4879V1.95546Z" fill="black"/>
<rect x="10.4879" y="5.5405" width="3.25912" height="15.6438" fill="black"/>
<path id="bottom" d="M10.4879 21.1843L10.4879 32.8939L2.89928 25.3053C2.2629 24.6689 1.23112 24.6689 0.59474 25.3053C-0.0416417 25.9417 -0.0416417 26.9735 0.59474 27.6098L10.9652 37.9803C11.6016 38.6167 12.6333 38.6167 13.2697 37.9803L23.6402 27.6098C24.2765 26.9735 24.2765 25.9417 23.6402 25.3053C23.0038 24.6689 21.972 24.6689 21.3356 25.3053L13.747 32.8939V21.1843H10.4879Z" fill="black"/>
</g>
<defs>
<clipPath id="clip0_11_3112">
<rect width="24" height="80.1742" fill="white"/>
</clipPath>
</defs>
</svg>
