<svg width="48" height="48" viewBox="0 0 48 48" fill="none" xmlns="http://www.w3.org/2000/svg">
<rect width="48" height="48" rx="24" fill="#9BB0AE"/>
<path d="M21.223 38.7038C22.0792 38.9353 23.5907 39.9578 24.2394 40.44C25.0179 39.5912 27.1586 38.6074 28.1317 38.2215C30.6227 37.2955 32.5428 35.7136 33.1915 35.0384C35.1377 32.955 35.4296 28.3186 35.3323 26.2608C35.2544 24.8718 34.716 23.6243 34.4565 23.1742C34.0673 22.2482 34.2943 21.3094 34.4565 20.9557C36.5583 16.4801 36.5648 11.6315 36.3053 9.76664C35.9939 7.143 34.0997 7.45166 33.1915 7.93395C29.9999 9.47727 28.4884 13.2713 28.1317 14.9753C25.4071 13.895 21.1581 14.5252 19.3742 14.9753C18.2065 10.4997 15.3198 8.41623 14.0223 7.93395C12.2319 6.85363 11.5897 8.38408 11.4924 9.28435C11.0253 15.6119 12.9844 20.602 14.0223 22.3061C13.0104 25.0841 12.7574 29.1867 12.7574 30.8908C12.7574 34.2861 18.4011 37.5142 21.223 38.7038Z" fill="#FFF1D7"/>
<path d="M13.9723 22.3061C12.9603 25.084 12.7702 26.8525 12.7702 28.5565C13.0699 29.1507 13.2697 29.5468 15.3676 29.5468C15.3676 29.5468 17.8651 29.5468 18.0649 27.4672C18.2647 25.3876 19.3241 24.7934 20.1025 23.6565C20.881 22.5195 21.854 21.7916 22.6325 21.6309C23.4888 21.5537 23.2597 20.3371 23.1598 19.6439C22.6325 15.6828 21.6995 15.3137 20.962 14.6925C20.7728 14.683 20.1804 14.7263 19.3241 14.9753C18.1564 10.4997 15.2697 8.41623 13.9723 7.93395C12.1819 6.85363 11.5397 8.38408 11.4423 9.28435C10.9753 15.6119 12.9344 20.602 13.9723 22.3061Z" fill="#E3985A"/>
<path d="M28.0549 14.9896C27.6553 14.7519 26.7562 14.5604 26.3566 14.4944C25.3576 16.574 25.0579 20.9643 26.0569 21.2284C27.8551 21.8226 28.2547 20.8323 28.954 21.5255C29.4336 24.7736 33.0499 24.9915 35.0479 24.8925C34.948 24.1993 34.8481 23.9022 34.5484 23.407C33.8292 22.2979 34.3819 20.8653 34.7482 20.2381C36.2667 16.9107 36.4533 12.3835 36.3466 10.5333C36.1468 7.06724 34.3486 7.2653 33.0499 7.85948C29.5534 9.84006 28.5877 13.141 28.0549 14.9896Z" fill="#E3985A"/>
<path d="M14.6851 20.7767C15.1268 18.5516 17.365 16.2108 18.5 15.5C17.7638 12.6074 15.5747 10.5782 14.5011 9.74379C13.1759 8.92791 12.6605 10.2692 12.5685 11.0418C12.274 15.3437 13.8569 19.3242 14.6851 20.7767Z" fill="#FFF1D7"/>
<path d="M34.0001 19C32.6115 16.6599 30.2382 15.7281 29.0001 15C29.8032 12.0368 31.9867 10.0541 33.1579 9.19933C34.6036 8.36356 35.1658 9.73752 35.2662 10.529C35.728 14.1695 35.0001 17 34.0001 19Z" fill="#FFF1D7"/>
<path d="M24.924 26.6553C23.6785 27.5073 22.6536 27.0103 22.2968 26.6553C21.0513 25.7259 21.5832 24.6544 22.0048 24.2349C22.5026 24.0183 22.7138 24 23.513 24.3976C24.2123 23.9006 25.0115 23.976 25.2159 24.2349C26.0722 25.3193 25.3781 26.3003 24.924 26.6553Z" fill="black"/>
<mask id="mask0_1_29" style="mask-type:alpha" maskUnits="userSpaceOnUse" x="21" y="24" width="6" height="5">
<path d="M23.5001 24.5C23.0001 25.5 22.0015 25.6477 21.6123 25.7441V27.5197C21.768 28.4457 23.1692 28.6129 23.8503 28.5807C25.4851 28.5807 26.0235 27.6805 26.0884 27.2303V25.8282C25.3099 25.751 24.5001 25.5 23.5001 24.5Z" fill="#F7524E"/>
</mask>
<g mask="url(#mask0_1_29)">
<path d="M23.5 28.5C23.1 29.7 21.6667 29.6667 21 29.5V33H26.5V29.5C24.9 29.9 23.8333 29 23.5 28.5Z" fill="#F54945"/>
</g>
<path d="M23.2476 26.3649H23.8314V29.2694H23.2476V26.3649Z" fill="black"/>
<path d="M19.1124 28.6502C19.2649 29.1152 19.8255 30.0913 20.8479 30.2748C21.5034 30.3925 22.9532 30.3094 23.5091 29.0356C23.7867 29.5568 24.7334 30.5685 26.2987 30.4456C26.9846 30.3917 28.1834 30.1627 28.3832 28.6502" stroke="black" stroke-width="0.5" stroke-linecap="round"/>
<path d="M29.8642 21.2336C29.8642 21.9287 29.2978 22.4922 28.5992 22.4922C27.9006 22.4922 27.3342 21.9287 27.3342 21.2336C27.3342 20.5385 27.9006 19.975 28.5992 19.975C29.2978 19.975 29.8642 20.5385 29.8642 21.2336Z" fill="black"/>
<path d="M20.1337 21.2336C20.1337 21.9287 19.5674 22.4922 18.8687 22.4922C18.1701 22.4922 17.6038 21.9287 17.6038 21.2336C17.6038 20.5385 18.1701 19.975 18.8687 19.975C19.5674 19.975 20.1337 20.5385 20.1337 21.2336Z" fill="black"/>
</svg>
