<svg width="21" height="15" viewBox="0 0 21 15" fill="none" xmlns="http://www.w3.org/2000/svg">
<path fill-rule="evenodd" clip-rule="evenodd" d="M0 1.3125C0 0.587633 0.587632 0 1.3125 0H19.6875C20.4124 0 21 0.587633 21 1.3125C21 2.03737 20.4124 2.625 19.6875 2.625H1.3125C0.587632 2.625 0 2.03737 0 1.3125ZM0 7.35C0 6.62511 0.587632 6.0375 1.3125 6.0375H19.6875C20.4124 6.0375 21 6.62511 21 7.35C21 8.07489 20.4124 8.6625 19.6875 8.6625H1.3125C0.587632 8.6625 0 8.07489 0 7.35ZM0 13.3875C0 12.6626 0.587632 12.075 1.3125 12.075H19.6875C20.4124 12.075 21 12.6626 21 13.3875C21 14.1124 20.4124 14.7 19.6875 14.7H1.3125C0.587632 14.7 0 14.1124 0 13.3875Z" fill="black"/>
</svg>
