<svg width="18" height="18" viewBox="0 0 18 18" fill="none" xmlns="http://www.w3.org/2000/svg">
<path d="M17.681 15.5796L11.1015 9L17.681 2.42043C18.1063 1.99514 18.1063 1.26963 17.681 0.844336L17.1557 0.318972C16.7304 -0.106324 16.0049 -0.106324 15.5796 0.318972L9 6.89854L2.42043 0.318972C1.99514 -0.106324 1.26963 -0.106324 0.844336 0.318972L0.318972 0.844336C-0.106324 1.26963 -0.106324 1.99514 0.318972 2.42043L6.89854 9L0.318972 15.5796C-0.106324 16.0049 -0.106324 16.7304 0.318972 17.1557L0.844336 17.681C1.26963 18.1063 1.99514 18.1063 2.42043 17.681L9 11.1015L15.5796 17.681C16.0049 18.1063 16.7304 18.1063 17.1557 17.681L17.681 17.1557C18.1063 16.7054 18.1063 16.0049 17.681 15.5796Z" fill="black"/>
</svg>
