<svg width="16" height="16" viewBox="0 0 16 16" fill="none" xmlns="http://www.w3.org/2000/svg">
<path d="M14.3447 7.1263L8.8737 7.1263V1.65528C8.8737 1.30163 8.57207 1 8.21842 1L7.78157 1C7.42793 1 7.1263 1.30163 7.1263 1.65527L7.1263 7.1263H1.65527C1.30163 7.1263 1 7.42793 1 7.78157V8.21842C1 8.57207 1.30163 8.8737 1.65527 8.8737H7.1263L7.1263 14.3447C7.1263 14.6984 7.42793 15 7.78157 15L8.21842 15C8.57207 15 8.8737 14.6984 8.8737 14.3447V8.8737L14.3447 8.8737C14.6984 8.8737 15 8.57207 15 8.21842V7.78158C14.9896 7.41753 14.6984 7.1263 14.3447 7.1263Z" fill="black"/>
</svg>
