<svg width="56" height="39" viewBox="0 0 56 39" fill="none" xmlns="http://www.w3.org/2000/svg">
<path d="M42.9112 39C36.0695 39 30.4553 33.7063 29.8803 26.9689C29.8157 26.7023 29.7636 26.429 29.7378 26.1624L29.686 25.6225C29.376 22.4295 29.6861 19.1907 30.5971 16.1928C31.5015 13.1883 32.9874 10.4308 34.9062 8.08968C38.7308 3.3878 44.3584 0.493885 49.9855 0.0126419C51.8977 -0.149773 53.571 1.27478 53.7325 3.19316C53.8745 4.85788 52.8212 6.3532 51.2966 6.82141L51.1868 6.85443C47.8985 7.86897 45.2046 10.0216 43.5313 12.6814C50.4699 13.0066 56 18.7555 56 25.8245C55.9999 33.1015 50.1403 38.9999 42.9112 39Z" fill="#9BB0AE"/>
<path d="M13.3411 39C6.49944 38.9999 0.885227 33.7063 0.310249 26.9689C0.245647 26.7023 0.194134 26.429 0.168293 26.1624L0.116558 25.6225C-0.193516 22.4295 0.11668 19.1907 1.02759 16.1928C1.93207 13.1883 3.41798 10.4308 5.3367 8.08968C9.16132 3.38789 14.7884 0.493889 20.4154 0.0126419C22.3278 -0.14994 24.0009 1.27469 24.1624 3.19316C24.3044 4.85782 23.2516 6.35313 21.7271 6.82141L21.6173 6.85443C18.3289 7.86895 15.6345 10.0215 13.9612 12.6814C20.8998 13.0065 26.4299 18.7554 26.4299 25.8245C26.4298 33.1016 20.5703 39 13.3411 39Z" fill="#9BB0AE"/>
</svg>
