<svg width="22" height="22" viewBox="0 0 22 22" fill="none" xmlns="http://www.w3.org/2000/svg">
<path d="M11 13.1C10.4201 13.1 9.95 12.6299 9.95 12.05V6.8C9.95 6.22009 10.4201 5.75 11 5.75C11.5799 5.75 12.05 6.22009 12.05 6.8V12.05C12.05 12.6299 11.5799 13.1 11 13.1Z" fill="white"/>
<path d="M9.95 15.2C9.95 15.7799 10.4201 16.25 11 16.25C11.5799 16.25 12.05 15.7799 12.05 15.2C12.05 14.6201 11.5799 14.15 11 14.15C10.4201 14.15 9.95 14.6201 9.95 15.2Z" fill="white"/>
<path fill-rule="evenodd" clip-rule="evenodd" d="M0.5 3.65C0.5 1.91031 1.91031 0.5 3.65 0.5H18.35C20.0897 0.5 21.5 1.91031 21.5 3.65V18.35C21.5 20.0897 20.0897 21.5 18.35 21.5H3.65C1.91031 21.5 0.5 20.0897 0.5 18.35V3.65ZM3.65 2.6C3.07011 2.6 2.6 3.07011 2.6 3.65V18.35C2.6 18.9299 3.07011 19.4 3.65 19.4H18.35C18.9299 19.4 19.4 18.9299 19.4 18.35V3.65C19.4 3.07011 18.9299 2.6 18.35 2.6H3.65Z" fill="white"/>
</svg>
