<svg width="48" height="48" viewBox="0 0 48 48" fill="none" xmlns="http://www.w3.org/2000/svg">
<rect width="48" height="48" rx="24" fill="#5A726F"/>
<path d="M21.223 38.7038C22.0792 38.9353 23.5907 39.9578 24.2394 40.44C25.0179 39.5912 27.1586 38.6074 28.1317 38.2215C30.6227 37.2955 32.5428 35.7136 33.1915 35.0384C35.1377 32.955 35.4296 28.3186 35.3323 26.2608C35.2544 24.8718 34.716 23.6243 34.4565 23.1742C34.0673 22.2482 34.2943 21.3094 34.4565 20.9557C36.5583 16.4801 36.5648 11.6315 36.3053 9.76664C35.9939 7.143 34.0997 7.45166 33.1915 7.93395C29.9999 9.47727 28.4884 13.2713 28.1317 14.9753C25.4071 13.895 21.1581 14.5252 19.3742 14.9753C18.2065 10.4997 15.3198 8.41623 14.0223 7.93395C12.2319 6.85363 11.5897 8.38408 11.4924 9.28435C11.0253 15.6119 12.9844 20.602 14.0223 22.3061C13.0104 25.0841 12.7574 29.1867 12.7574 30.8908C12.7574 34.2861 18.4011 37.5142 21.223 38.7038Z" fill="#FFF1D7"/>
<path d="M13.9723 22.3061C12.9603 25.084 12.7702 26.8525 12.7702 28.5565C13.0699 29.1507 13.2697 29.5468 15.3676 29.5468C15.3676 29.5468 17.8651 29.5468 18.0649 27.4672C18.2647 25.3876 19.3241 24.7934 20.1025 23.6565C20.881 22.5195 21.854 21.7916 22.6325 21.6309C23.4888 21.5537 23.2597 20.3371 23.1598 19.6439C22.6325 15.6828 21.6995 15.3137 20.962 14.6925C20.7728 14.683 20.1804 14.7263 19.3241 14.9753C18.1564 10.4997 15.2697 8.41623 13.9723 7.93395C12.1819 6.85363 11.5397 8.38408 11.4423 9.28435C10.9753 15.6119 12.9344 20.602 13.9723 22.3061Z" fill="#E3985A"/>
<path d="M28.0549 14.9896C27.6553 14.7519 26.7562 14.5604 26.3566 14.4944C25.3576 16.574 25.0579 20.9643 26.0569 21.2284C27.8551 21.8226 28.2547 20.8323 28.954 21.5255C29.4336 24.7736 33.0499 24.9915 35.0479 24.8925C34.948 24.1993 34.8481 23.9022 34.5484 23.407C33.8292 22.2979 34.3819 20.8653 34.7482 20.2381C36.2667 16.9107 36.4533 12.3835 36.3466 10.5333C36.1468 7.06724 34.3486 7.2653 33.0499 7.85948C29.5534 9.84006 28.5877 13.141 28.0549 14.9896Z" fill="#E3985A"/>
<path d="M14.6851 20.7767C15.1268 18.5516 17.365 16.2108 18.5 15.5C17.7638 12.6074 15.5747 10.5782 14.5011 9.74379C13.1759 8.92791 12.6605 10.2692 12.5685 11.0418C12.274 15.3437 13.8569 19.3242 14.6851 20.7767Z" fill="#FFF1D7"/>
<path d="M34.0001 19C32.6115 16.6599 30.2382 15.7281 29.0001 15C29.8032 12.0368 31.9867 10.0541 33.1579 9.19933C34.6036 8.36356 35.1658 9.73752 35.2662 10.529C35.728 14.1695 35.0001 17 34.0001 19Z" fill="#FFF1D7"/>
<path d="M24.8705 26.6467C23.625 27.4955 22.6001 27.0004 22.2433 26.6467C20.9978 25.7207 21.5297 24.6532 21.9514 24.2353C22.4491 24.0194 22.6603 24.0012 23.4595 24.3974C24.1588 23.9022 24.958 23.9773 25.1625 24.2353C26.0188 25.3156 25.3246 26.293 24.8705 26.6467Z" fill="black"/>
<path d="M23.8535 28.8309H23.2695V26.3573H23.8535V28.8309Z" fill="black"/>
<mask id="mask0_1_48" style="mask-type:alpha" maskUnits="userSpaceOnUse" x="21" y="28" width="6" height="5">
<path d="M23.5001 28.5C23.0001 29.5 22.0015 29.6477 21.6123 29.7441V31.5197C21.768 32.4457 23.1692 32.6129 23.8503 32.5807C25.4851 32.5807 26.0235 31.6805 26.0884 31.2303V29.8282C25.3099 29.751 24.5001 29.5 23.5001 28.5Z" fill="#F7524E"/>
</mask>
<g mask="url(#mask0_1_48)">
<path d="M23.5 28.5C23.1 29.7 21.6667 29.6667 21 29.5V33H26.5V29.5C24.9 29.9 23.8333 29 23.5 28.5Z" fill="#F54945"/>
</g>
<path d="M19.7305 28.1122C19.853 28.5719 20.3201 29.5311 21.2087 29.6906C21.7782 29.7929 23.0461 29.6772 23.5608 28.396C23.7913 28.9087 24.5946 29.8946 25.9643 29.7366C26.5644 29.6673 27.6165 29.4119 27.8257 27.9011" stroke="black" stroke-width="0.5" stroke-linecap="round"/>
<path fill-rule="evenodd" clip-rule="evenodd" d="M28.8417 21.4371C29.4361 21.429 30.0209 21.5772 30.3691 21.7144C30.5494 21.7854 30.7574 21.7069 30.8337 21.539C30.91 21.3711 30.8257 21.1774 30.6453 21.1063C30.2254 20.9409 29.5427 20.7673 28.8313 20.777C28.1181 20.7868 27.3262 20.9836 26.7754 21.6148C26.652 21.7563 26.6751 21.9642 26.827 22.0792C26.979 22.1941 27.2023 22.1726 27.3257 22.0311C27.6967 21.606 28.2491 21.4453 28.8417 21.4371Z" fill="black"/>
<path fill-rule="evenodd" clip-rule="evenodd" d="M18.7183 21.4371C18.124 21.429 17.5392 21.5772 17.191 21.7144C17.0107 21.7854 16.8026 21.7069 16.7264 21.539C16.6501 21.3711 16.7344 21.1774 16.9147 21.1063C17.3347 20.9409 18.0173 20.7673 18.7288 20.777C19.442 20.7868 20.2338 20.9836 20.7846 21.6148C20.9081 21.7563 20.885 21.9642 20.733 22.0792C20.5811 22.1941 20.3578 22.1726 20.2343 22.0311C19.8634 21.606 19.311 21.4453 18.7183 21.4371Z" fill="black"/>
</svg>
